<?xml version="1.0" encoding="UTF-8"?>
<svg version="1.1" viewBox="0 0 744.09 1052.4" xmlns="http://www.w3.org/2000/svg">
 <g transform="translate(9.8995 10.253)" fill="#d35f5f">
  <rect x="255" y="332.36" width="30.026" height="15"/>
  <rect x="240" y="347.33" width="15.088" height="15.265"/>
  <rect x="224.82" y="362.51" width="15.265" height="30.026"/>
  <rect x="284.97" y="347.27" width="15" height="15"/>
  <rect x="300.06" y="332.33" width="30.114" height="15.265"/>
  <rect x="329.82" y="347.33" width="15.265" height="15.354"/>
  <rect x="344.88" y="362.42" width="15.265" height="30.026"/>
  <rect x="329.82" y="392.07" width="15.265" height="15.354"/>
  <rect x="315" y="407.24" width="15" height="15"/>
  <rect x="300" y="422.24" width="15.088" height="15.265"/>
  <rect x="240.09" y="392.42" width="15" height="15"/>
  <rect x="255" y="407.42" width="15" height="15"/>
  <rect x="284.94" y="437.51" width="15" height="15"/>
  <path d="m255.08 377.34v-30.015h15.28v60.03h-15.28v-30.015z"/>
  <path d="m269.97 384.84v-37.515h15.015v75.03h-15.015v-37.515z"/>
  <path d="m299.95 384.91v-37.589h15.104v75.178h-15.104v-37.589z"/>
  <path d="m314.7 377.34v-30.015h15.369v60.03h-15.369v-30.015z"/>
  <path d="m239.95 377.47v-15.015h16.03v30.03h-16.03v-15.015z"/>
  <path d="m329.83 377.43v-14.979h15.28v29.958h-15.28v-14.979z"/>
  <path d="m284.8 399.86v-37.57h15.434v75.14h-15.434v-37.57z"/>
  <path d="m269.97 429.88v-7.4779h15.09v14.956h-15.09v-7.4779z"/>
  <path d="m315.25 414.8v-7.4246h14.672v14.849h-14.672v-7.4246z"/>
  <path d="m300 429.93v-7.5793h15.07v15.159h-15.07v-7.5793z"/>
  <path d="m285.07 444.87v-7.4909h14.938v14.982h-14.938v-7.4909z"/>
 </g>
 <g transform="translate(.7071 15.91)" fill="#e9afaf">
  <path d="m264.27 372.04v-30.015h15.28v60.03h-15.28v-30.015z"/>
  <path d="m279.16 379.54v-37.515h15.015v75.03h-15.015v-37.515z"/>
  <path d="m309.15 379.61v-37.589h15.104v75.178h-15.104v-37.589z"/>
  <path d="m323.9 372.04v-30.015h15.369v60.03h-15.369v-30.015z"/>
  <path d="m249.15 372.16v-15.015h16.03v30.03h-16.03v-15.015z"/>
  <path d="m339.02 372.13v-14.979h15.28v29.958h-15.28v-14.979z"/>
  <path d="m293.99 394.56v-37.57h15.434v75.14h-15.434v-37.57z"/>
 </g>
</svg>
